<svg xmlns="http://www.w3.org/2000/svg" viewBox="0 0 360 240" role="img" aria-labelledby="title">
  <title id="title">Mango product image</title>
  <rect width="360" height="240" rx="24" fill="#fff8e8"/>
  <path d="M131 181c-37-31-44-83-13-116 35-38 96-25 121 15 30 48-7 109-65 115-17 2-31-3-43-14Z" fill="#f7bd2a"/>
  <path d="M151 177c-26-24-31-63-7-89 27-30 74-22 93 9 23 36-5 83-48 88-15 2-27-1-38-8Z" fill="#f28f2d"/>
  <path d="M160 60c28-29 67-31 94-9-23 25-59 35-94 9Z" fill="#1f8a5b"/>
  <path d="M169 74c9 3 15 11 17 25" fill="none" stroke="#8f5a1a" stroke-width="9" stroke-linecap="round"/>
  <circle cx="202" cy="105" r="14" fill="#fff7c8" opacity=".75"/>
  <ellipse cx="180" cy="205" rx="92" ry="14" fill="#eadfca"/>
</svg>
